<svg xmlns="http://www.w3.org/2000/svg" xmlns:xlink="http://www.w3.org/1999/xlink">
  <symbol id="icon-menu" viewBox="0 0 24 24">
    <path
      fill="none"
      stroke="currentColor"
      stroke-linecap="round"
      stroke-linejoin="round"
      stroke-width="2"
      d="M4 6h16M4 12h16M4 18h16"
    />
  </symbol>

  <symbol id="icon-bell" viewBox="0 0 24 24">
    <path
      fill="none"
      stroke="currentColor"
      stroke-linecap="round"
      stroke-linejoin="round"
      stroke-width="2"
      d="M15 17h5l-1.405-1.405A2.032 2.032 0 0118 14.158V11a6.002 6.002 0 00-4-5.659V5a2 2 0 10-4 0v.341C7.67 6.165 6 8.388 6 11v3.159c0 .538-.214 1.055-.595 1.436L4 17h5m6 0v1a3 3 0 11-6 0v-1m6 0H9"
    />
  </symbol>

  <symbol id="icon-bolt" viewBox="0 0 20 20">
    <path
      fill="currentColor"
      fill-rule="evenodd"
      d="M11.3 1.046A1 1 0 0112 2v5h4a1 1 0 01.82 1.573l-7 10A1 1 0 018 18v-5H4a1 1 0 01-.82-1.573l7-10a1 1 0 011.12-.38z"
      clip-rule="evenodd"
    />
  </symbol>

  <symbol id="icon-sparkle" viewBox="0 0 24 24">
    <path
      fill="currentColor"
      d="M12 2.25l.85 3.18a1.25 1.25 0 001.2.91l3.28.24-2.5 2.14a1.25 1.25 0 00-.38 1.24l.76 3.2-2.85-1.72a1.25 1.25 0 00-1.32 0l-2.85 1.72.76-3.2a1.25 1.25 0 00-.38-1.24l-2.5-2.14 3.28-.24a1.25 1.25 0 001.2-.91L12 2.25zM6.5 15.5l.35 1.3a.5.5 0 00.48.37l1.34.1-1.02.88a.5.5 0 00-.15.5l.31 1.31-1.17-.7a.5.5 0 00-.53 0l-1.17.7.31-1.31a.5.5 0 00-.15-.5l-1.02-.88 1.34-.1a.5.5 0 00.48-.37l.35-1.3zM17.25 14l.28 1.05a.4.4 0 00.39.3l1.08.08-.82.7a.4.4 0 00-.12.4l.25 1.06-.94-.57a.4.4 0 00-.43 0l-.94.57.25-1.06a.4.4 0 00-.12-.4l-.82-.7 1.08-.08a.4.4 0 00.39-.3L17.25 14z"
    />
  </symbol>

  <symbol id="icon-agent" viewBox="0 0 24 24">
    <path
      fill="none"
      stroke="currentColor"
      stroke-linecap="round"
      stroke-linejoin="round"
      stroke-width="1.8"
      d="M12 3.5v2.2M6.8 9.2h10.4a2.3 2.3 0 012.3 2.3v4.7a2.3 2.3 0 01-2.3 2.3H6.8a2.3 2.3 0 01-2.3-2.3v-4.7a2.3 2.3 0 012.3-2.3zM9.4 13h.01M14.6 13h.01M9.2 16.1c.8.6 1.8.9 2.8.9s2-.3 2.8-.9M7.4 9.2V7.9M16.6 9.2V7.9"
    />
  </symbol>
</svg>

